<svg width="26" height="26" viewBox="0 0 26 26" fill="none" xmlns="http://www.w3.org/2000/svg">
<path d="M9.46413 17.9714L15.7751 17.9907C16.1686 17.9921 16.4871 18.3216 16.4871 18.7256V22.2759C16.4871 22.6813 16.2569 23.048 15.8982 23.2176L10.1695 25.9076C10.0357 25.9697 9.89379 26 9.75191 26C9.56318 26 9.37446 25.9448 9.20982 25.8359C8.92205 25.6457 8.74805 25.3175 8.74805 24.9659V18.7063C8.74805 18.2995 9.06928 17.97 9.46413 17.9714ZM23.2334 0C24.7619 0 26 1.27537 26 2.84993V4.84088C26 5.60473 25.7015 6.33823 25.1715 6.8732L16.715 15.4271C16.5691 15.576 16.371 15.6588 16.1662 15.6574L9.08561 15.6353C8.87012 15.6353 8.66533 15.5429 8.5181 15.3816L0.746873 6.83459C0.266358 6.30652 0 5.60886 0 4.885V2.85131C0 1.27675 1.2381 0 2.76664 0H23.2334Z" fill="black"/>
</svg>
