<svg width="33" height="33" viewBox="0 0 33 33" fill="none" xmlns="http://www.w3.org/2000/svg">
<path d="M22.55 33L10.4958 28.7375L2.29167 31.9917C1.77222 32.2667 1.26042 32.2514 0.75625 31.9458C0.252083 31.6403 0 31.1819 0 30.5708V4.99583C0 4.59861 0.114583 4.24722 0.34375 3.94167C0.572917 3.63611 0.870833 3.40694 1.2375 3.25417L10.4958 0L22.55 4.21667L30.7083 0.9625C31.2278 0.718056 31.7396 0.740972 32.2437 1.03125C32.7479 1.32153 33 1.77222 33 2.38333V28.2792C33 28.6153 32.8854 28.9056 32.6563 29.15C32.4271 29.3944 32.1444 29.5778 31.8083 29.7L22.55 33ZM20.9917 29.5625V6.41667L12.0083 3.39167V26.5375L20.9917 29.5625ZM23.7417 29.5625L30.25 27.4083V3.94167L23.7417 6.41667V29.5625ZM2.75 29.0125L9.25833 26.5375V3.39167L2.75 5.54583V29.0125ZM23.7417 6.41667V29.5625V6.41667ZM9.25833 3.39167V26.5375V3.39167Z" fill="black"/>
</svg>
