<svg width="34" height="34" viewBox="0 0 34 34" fill="none" xmlns="http://www.w3.org/2000/svg">
<path fill-rule="evenodd" clip-rule="evenodd" d="M16.5342 5C22.894 5 28.0672 10.059 28.0672 16.2786C28.0672 19.213 26.9157 21.8893 25.0313 23.8979L28.7392 27.5163C29.0862 27.8557 29.0873 28.4047 28.7403 28.744C28.5674 28.9155 28.3388 29 28.1115 29C27.8853 29 27.6579 28.9155 27.4838 28.7464L23.7312 25.0868C21.7571 26.6328 19.2542 27.5584 16.5342 27.5584C10.1743 27.5584 5 22.4982 5 16.2786C5 10.059 10.1743 5 16.5342 5ZM16.5342 6.73731C11.1538 6.73731 6.77649 11.0169 6.77649 16.2786C6.77649 21.5403 11.1538 25.8211 16.5342 25.8211C21.9134 25.8211 26.2907 21.5403 26.2907 16.2786C26.2907 11.0169 21.9134 6.73731 16.5342 6.73731Z" fill="black"/>
</svg>
